<svg fill="#1C77C3" xmlns="http://www.w3.org/2000/svg" data-name="Layer 1" viewBox="0 0 100 100" x="0px" y="0px"><title>09</title><path d="M42.85,57.15a3.5,3.5,0,0,0,3.7.8l12.2-4.57a3.51,3.51,0,0,0,1.25-.8L88.36,24.21a3.5,3.5,0,0,0,0-4.95l-7.62-7.62a3.5,3.5,0,0,0-4.95,0L47.42,40a3.49,3.49,0,0,0-.8,1.25L42,53.45A3.5,3.5,0,0,0,42.85,57.15Z"></path><path d="M14.11,89.39h63.8a3.5,3.5,0,0,0,3.5-3.5V54h-7v28.4H17.61V25.59H46v-7H14.11a3.5,3.5,0,0,0-3.5,3.5v63.8A3.5,3.5,0,0,0,14.11,89.39Z"></path></svg>