<svg fill="#FFFFFF" xmlns="http://www.w3.org/2000/svg" xmlns:xlink="http://www.w3.org/1999/xlink" version="1.1" x="0px" y="0px" viewBox="0 0 91 91" enable-background="new 0 0 91 91" xml:space="preserve"><g><path d="M59.346,27.886c-0.204-0.687-0.831-1.162-1.549-1.167c-0.008,0-0.012,0-0.017,0c-0.71,0-1.34,0.46-1.556,1.139   l-2.541,8.021c-0.185,0.586-0.024,1.228,0.416,1.659l2.455,2.405c0.316,0.312,0.729,0.466,1.144,0.466   c0.408,0,0.822-0.154,1.139-0.466l2.459-2.405c0.433-0.422,0.595-1.05,0.425-1.63L59.346,27.886z M57.698,36.491l-0.6-0.585   l0.628-1.985l0.585,1.97L57.698,36.491z"></path><path d="M19.858,49.101c-0.205-0.687-0.834-1.164-1.551-1.17c-0.004,0-0.01,0-0.013,0c-0.712,0-1.341,0.461-1.556,1.142   l-2.539,8.018c-0.186,0.586-0.026,1.227,0.412,1.657l2.455,2.406c0.317,0.311,0.73,0.467,1.143,0.467   c0.412,0,0.825-0.154,1.142-0.465l2.46-2.406c0.43-0.423,0.596-1.05,0.423-1.631L19.858,49.101z M18.21,57.705l-0.597-0.587   l0.629-1.984l0.583,1.97L18.21,57.705z"></path><circle cx="51.733" cy="14.515" r="1.828"></circle><circle cx="57.891" cy="14.515" r="1.828"></circle><path d="M18.377,36.149c-0.555,0.708-0.434,1.734,0.275,2.292c0.76,0.6,2.218,1.302,3.94,1.302c1.182,0,2.491-0.332,3.783-1.259   c0.732-0.526,0.901-1.544,0.375-2.277s-1.544-0.9-2.278-0.375c-1.917,1.374-3.622,0.178-3.815,0.034   C19.948,35.321,18.931,35.448,18.377,36.149z"></path><path d="M19.462,34.141c1.009,0,1.831-0.821,1.831-1.83c0-1.007-0.821-1.828-1.831-1.828c-1.008,0-1.829,0.821-1.829,1.828   C17.634,33.32,18.455,34.141,19.462,34.141z"></path><path d="M25.619,34.141c1.009,0,1.831-0.821,1.831-1.83c0-1.007-0.821-1.828-1.831-1.828c-1.007,0-1.825,0.821-1.825,1.828   C23.793,33.32,24.611,34.141,25.619,34.141z"></path><path d="M88.877,4.335l-8.978-3.938c-0.499-0.217-1.085-0.174-1.547,0.129c-0.463,0.301-0.739,0.814-0.739,1.365v7.874   c0,0.005,0.002,0.008,0.002,0.014v5.943c-0.708,0.303-1.292,0.706-1.651,1.043c-0.163,0.154-0.293,0.339-0.381,0.546   c-0.03,0.068-0.736,1.723-1.825,4.884c-0.522,1.522-2.073,1.606-2.227,1.611h-4.358c2.457-2.376,3.941-5.666,3.941-9.203   c0-7.07-5.756-12.824-12.825-12.824c-7.071,0-12.823,5.753-12.823,12.824c0,3.685,1.572,7.069,4.147,9.44   c-2.3,1.717-4.231,4.244-5.264,6.317c-0.256,0.516-0.715,1.279-1.262,2.194c-1.579,2.639-3.457,5.796-4.318,8.603   c-4.181,3.436-6.58,3.522-6.625,3.522h-4.354c2.457-2.376,3.938-5.665,3.938-9.201c0-7.07-5.753-12.823-12.825-12.823   c-7.073,0-12.823,5.753-12.823,12.823c0,3.685,1.573,7.069,4.147,9.438c-2.298,1.719-4.232,4.245-5.264,6.319   C4.89,51.387-2.26,66.359,2.572,70.117c0.55,0.429,1.706,1.328,3.107,1.328c0.702,0,1.465-0.226,2.245-0.846   c0.737-0.592,1.299-1.867,2.365-5.218v20.213c0,0.681,0.138,1.328,0.381,1.921H3.403c-0.903,0-1.631,0.73-1.631,1.633   c0,0.901,0.729,1.633,1.631,1.633H26.25V80.672h20.266v-9.259h19.99V61.62h19.81c0.904,0,1.632-0.729,1.632-1.631   c0-0.902-0.728-1.632-1.632-1.632H74.57c0.894-0.901,1.314-2.02,1.415-2.787c0.01-0.07,0.014-0.141,0.014-0.211v-11.6   c0-1.519-1.171-5.458-6.479-5.458l-4.012-0.095v-4.881l8.858-0.028c4.595,0,6.24-3.664,6.342-3.9l3.454-9.269   c0.094-0.252,0.124-0.521,0.088-0.787c-0.148-1.135-1.011-3.236-3.275-3.898c-0.032-0.01-0.064-0.01-0.098-0.02v-4.591l7.999-3.507   c0.593-0.26,0.977-0.846,0.977-1.495C89.854,5.184,89.47,4.596,88.877,4.335z M22.987,77.405v10.11h-2.8   c0.241-0.595,0.381-1.242,0.381-1.923L20.545,69.06l5.993,0.006c0.002,0.02,0.004,0.037,0.002,0.049   c-0.007,0.067-0.013,0.137-0.013,0.206v5.56c0,0.15,0.021,0.303,0.063,0.446c0.173,0.604,0.542,1.379,1.116,2.079H22.987z    M33.351,74.622c-0.064,0.317-0.4,1.339-1.946,1.339c-0.96,0-1.451-0.961-1.614-1.358v-5.203c0.036-0.439,0.04-1.617-0.763-2.554   c-0.395-0.462-1.123-1.018-2.389-1.052h-7.728c-0.434,0-0.848,0.172-1.155,0.479c-0.308,0.308-0.476,0.725-0.476,1.155   l0.023,18.167c0,1.034-0.841,1.876-1.876,1.876c-1.034,0-1.873-0.842-1.873-1.876V55.991c0-0.9-0.734-1.555-1.631-1.632   c-0.953-0.081-1.505,0.855-1.575,0.942c-0.581,0.729-1.089,2.293-2.286,6.241c-0.658,2.17-1.748,5.764-2.266,6.569   c-0.167,0.104-0.387,0.08-1.222-0.569c-1.567-1.22,0.956-10.12,3.313-14.851c1.155-2.325,3.324-4.697,5.25-5.792   c0.802,0.406,1.635,0.76,2.533,0.993c0.138,0.036,0.277,0.053,0.414,0.053c0.724,0,1.386-0.487,1.576-1.221   c0.228-0.874-0.296-1.765-1.167-1.991c-4.21-1.094-7.148-4.899-7.148-9.254c0-5.271,4.29-9.56,9.56-9.56   c5.271,0,9.562,4.288,9.562,9.56c0,3.776-2.23,7.205-5.68,8.738c0,0-0.698,0.661-0.698,1.85c0,1.58,1.364,1.878,1.364,1.878   l8.625-0.002c0.019,0.002,0.049,0.002,0.085,0.002c0.527,0,2.808-0.19,6.373-2.561c0.222,0.662,0.6,1.252,1.208,1.725   c0.301,0.232,0.63,0.409,0.972,0.558c-1.5,1.39-3.548,2.844-5.866,3.243l-10.359,0.03c-0.899,0.002-1.627,0.732-1.627,1.632v8.114   c0,0.022,0.011,0.038,0.013,0.062c-0.001,0.021-0.013,0.038-0.013,0.061c0,0.902,0.73,1.632,1.631,1.632h5.604   c2.944,0,3.235,1.7,3.253,2.193V74.622z M43.254,68.149v9.256h-7.761c0.677-0.828,1.021-1.769,1.108-2.439   c0.009-0.071,0.013-0.141,0.013-0.212V64.635c0-1.518-1.17-5.458-6.517-5.458h-3.973v-4.979l8.864-0.024   c0.081,0,0.163-0.006,0.246-0.02c5.785-0.902,9.934-6.406,10.622-7.372c0.768-0.762,1.849-2.508,3.815-5.921v23.857   c0,1.322,0.516,2.52,1.34,3.432H43.254z M63.244,58.357v9.792h-4.633c0.824-0.912,1.34-2.109,1.34-3.434l-0.023-16.529l5.996,0.005   c0.002,0.021,0.002,0.037,0.002,0.049c-0.01,0.068-0.015,0.137-0.015,0.207v7.036c0,0.151,0.021,0.303,0.063,0.446   c0.2,0.707,0.66,1.646,1.41,2.428H63.244z M80.928,19.467l-3.235,8.69c-0.091,0.191-0.95,1.877-3.331,1.877l-10.487,0.031   c-0.9,0.004-1.628,0.733-1.628,1.633v8.112c0,0.902,0.729,1.633,1.632,1.633c0.086,0,5.603,0.122,5.603,0.122   c2.946,0,3.236,1.7,3.255,2.194v11.453c-0.104,0.468-0.493,1.352-1.948,1.352c-0.958,0-1.449-0.959-1.612-1.357v-6.681   c0.035-0.438,0.039-1.617-0.765-2.556c-0.395-0.461-1.121-1.017-2.387-1.051h-7.729c-0.435,0-0.851,0.173-1.156,0.479   c-0.307,0.309-0.475,0.725-0.475,1.156l0.023,18.165c0,1.036-0.842,1.879-1.878,1.879c-1.032,0-1.872-0.843-1.872-1.879v-29.6   c0-0.902-0.745-1.479-1.634-1.632c-0.966-0.166-1.503,0.856-1.572,0.941c-0.44,0.555-1.169,1.814-2.418,3.991   c-1.1,1.919-3.148,5.489-3.726,6.031c-0.662,0.531-1.476,0.374-1.838,0.089c-0.516-0.402-0.664-2.273,4.138-10.306   c0.599-1.004,1.099-1.847,1.382-2.414c1.157-2.326,3.325-4.696,5.251-5.79c0.805,0.405,1.64,0.758,2.537,0.991   c0.137,0.037,0.272,0.052,0.409,0.052c0.727,0,1.387-0.488,1.578-1.222c0.226-0.872-0.296-1.763-1.17-1.989   c-2.005-0.519-3.688-1.683-4.933-3.201c0.762,0.595,2.21,1.289,3.919,1.289c1.182,0,2.492-0.331,3.783-1.259   c0.732-0.525,0.9-1.544,0.376-2.277c-0.525-0.731-1.543-0.903-2.279-0.374c-1.908,1.372-3.615,0.183-3.814,0.034   c-0.708-0.546-1.723-0.422-2.279,0.283c-0.4,0.509-0.438,1.181-0.169,1.728c-1.098-1.568-1.751-3.457-1.751-5.478   c0-5.272,4.288-9.56,9.561-9.56s9.559,4.288,9.559,9.56c0,3.776-2.281,7.092-5.677,8.737c-1.227,0.595-0.967,1.992-0.967,2.098   c0,0.902,0.729,1.631,1.632,1.631h8.695c1.484,0,4.275-0.803,5.312-3.811c0.757-2.196,1.327-3.648,1.585-4.289   c0.343-0.232,1.003-0.579,1.631-0.395C80.562,18.722,80.812,19.163,80.928,19.467z M80.876,7.27v-2.88l3.284,1.441L80.876,7.27z"></path></g></svg>