<svg fill="#F0A202" xmlns="http://www.w3.org/2000/svg" xmlns:xlink="http://www.w3.org/1999/xlink" version="1.1" x="0px" y="0px" viewBox="0 0 100 100" style="enable-background:new 0 0 100 100;" xml:space="preserve"><g><path d="M99.619,61.639l-3.716-7.659c-3.728-8.791-8.097-7.766-8.097-7.766c1.68-1.284,2.764-3.306,2.764-5.582   c0-3.88-3.146-7.024-7.024-7.024c-3.88,0-7.024,3.145-7.024,7.024c0,2.278,1.086,4.302,2.768,5.585c0,0-4.164-0.629-7.203,5.947   l-5.199-10.735c-1.447-2.995-4.611-11.141-11.744-10.78c2.512-1.67,4.17-4.523,4.17-7.758c0-5.135-4.178-9.313-9.312-9.313   c-5.135,0-9.313,4.178-9.313,9.313c0,3.233,1.658,6.087,4.168,7.757c-3.059,0.015-7.382,0.591-11.78,10.781l-5.203,10.672   c-3.098-6.512-7.145-5.87-7.145-5.87c1.68-1.283,2.766-3.307,2.766-5.584c0-3.88-3.145-7.023-7.024-7.023   c-3.88,0-7.024,3.144-7.024,7.023c0,2.275,1.083,4.298,2.762,5.582c0,0-4.533-0.79-8.103,7.76l-3.715,7.656   c-0.447,0.916-1.073,3.498,1.766,5.107c2.578,1.172,4.319-0.354,4.997-1.524l-1.926,9.329h4.188v7.832   c0,2.218,1.804,4.021,4.021,4.021c1.202,0,2.282-0.53,3.019-1.368c0.737,0.827,1.81,1.349,3.002,1.349   c2.217,0,4.021-1.803,4.021-4.021v-7.813h4.083l-2.593-12.882c0.446,0.165,1.875,0.671,3.669-0.436l2.619-1.843   c1.46,0.22,3.563-0.063,4.947-2.602l4.48-8.614v33.167c0,2.781,2.264,5.045,5.045,5.045c1.787,0,3.36-0.934,4.256-2.339   c0.894,1.42,2.475,2.365,4.272,2.365c2.782,0,5.045-2.264,5.045-5.046V48.197l4.378,8.505c1.38,2.529,3.472,2.819,4.932,2.604   l2.765,1.945c2.36,1.534,4.409,0.242,5.146-0.567v21.696c0,2.218,1.805,4.022,4.022,4.022c1.193,0,2.268-0.522,3.004-1.351   c0.738,0.839,1.818,1.369,3.021,1.369c2.217,0,4.021-1.805,4.021-4.022V60.848l2.148,4.161c0.527,1.087,2.381,3.005,5.084,1.759   C100.662,65.299,100.07,62.563,99.619,61.639z M78.016,40.632c0-3.056,2.476-5.531,5.53-5.531c3.054,0,5.53,2.476,5.53,5.531   c0,3.054-2.477,5.53-5.53,5.53C80.491,46.162,78.016,43.686,78.016,40.632z M10.939,40.646c0-3.055,2.476-5.531,5.531-5.531   c3.054,0,5.53,2.477,5.53,5.531s-2.476,5.531-5.53,5.531C13.415,46.178,10.939,43.701,10.939,40.646z M42.249,22.891   c0-4.281,3.471-7.752,7.752-7.752c4.281,0,7.751,3.471,7.751,7.752S54.281,30.642,50,30.642   C45.719,30.642,42.249,27.172,42.249,22.891z M32.768,56.424l-5.03,3.539c-1.559,1-3.025-0.006-3.422-0.792   c-0.624-1.233-2.399-4.74-2.399-4.74l3.737,18.565h-3.737v9.374c0,1.358-1.102,2.46-2.46,2.46c-1.359,0-2.46-1.102-2.46-2.46   v-9.374h-1.102v9.393c0,1.358-1.102,2.461-2.46,2.461s-2.46-1.103-2.46-2.461v-9.393H7.143l3.833-18.565l-5.099,9.877   c-0.393,0.804-1.429,1.699-3.036,1.042c-1.159-0.474-1.596-1.898-1.046-3.023l3.698-7.621c2.016-4.167,3.374-7.027,7.387-7.027   h7.149c3.949,0,5.328,2.77,7.291,6.829l2.743-1.93c1.705-0.956,2.819-0.081,3.277,0.569C34.086,54.209,33.831,55.676,32.768,56.424   z M64.856,55.716L57.74,41.771v39.602c0,1.925-1.56,3.484-3.484,3.484c-1.924,0-3.484-1.56-3.484-3.484V61.061h-1.56v20.287   c0,1.924-1.56,3.484-3.484,3.484c-1.924,0-3.484-1.561-3.484-3.484V41.771l-7.014,13.644c0.331-1.366-0.365-5.415-5.047-4.599   l4.274-8.654c2.854-5.904,4.778-9.955,10.463-9.955h10.126c5.684,0,7.609,4.051,10.463,9.955l4.232,8.626   C65.137,50,64.361,54.24,64.856,55.716z M97.17,65.35c-1.628,0.762-2.741-0.436-3.037-1.044l-5.104-9.883v27.977   c0,1.359-1.102,2.462-2.461,2.462s-2.462-1.103-2.462-2.462V68.05h-1.102v14.331c0,1.359-1.103,2.462-2.462,2.462   s-2.461-1.103-2.461-2.462V54.423c0,0-2.504,4.942-2.532,4.983c-0.458,0.65-1.735,1.555-3.276,0.569l-5.031-3.54   c-1.063-0.747-1.264-2.179-0.57-3.276c1.271-1.603,2.865-0.859,3.277-0.57l2.724,1.917c1.966-4.065,3.345-6.84,7.299-6.84h7.153   c4.016,0,5.375,2.861,7.393,7.031l3.699,7.626C98.766,63.449,98.309,64.826,97.17,65.35z"></path></g></svg>