<svg fill="#13293D" xmlns:dc="http://purl.org/dc/elements/1.1/" xmlns:cc="http://creativecommons.org/ns#" xmlns:rdf="http://www.w3.org/1999/02/22-rdf-syntax-ns#" xmlns:svg="http://www.w3.org/2000/svg" xmlns="http://www.w3.org/2000/svg" xmlns:sodipodi="http://sodipodi.sourceforge.net/DTD/sodipodi-0.dtd" xmlns:inkscape="http://www.inkscape.org/namespaces/inkscape" version="1.1" x="0px" y="0px" viewBox="0 0 100 100"><g transform="translate(0,-952.36218)"><path style="text-indent:0;text-transform:none;direction:ltr;block-progression:tb;baseline-shift:baseline;color:#000000;enable-background:accumulate;" d="m 50,955.36217 c -25.9337,0 -47,21.06644 -47,47.00003 0,25.9336 21.0663,47 47,47 25.9337,0 47,-21.0664 47,-47 0,-9.44922 -2.7889,-18.2516 -7.5938,-25.62503 0.9956,-1.55347 1.5938,-3.40354 1.5938,-5.375 0,-5.49914 -4.5008,-10 -10,-10 -1.9739,0 -3.8203,0.59593 -5.375,1.59375 C 68.2576,958.16276 59.4365,955.36217 50,955.36217 z m 0,4 c 8.3425,0 16.1012,2.36524 22.6875,6.46875 -1.0663,1.58955 -1.6875,3.48456 -1.6875,5.53125 0,5.49913 4.5008,10 10,10 2.0378,0 3.9459,-0.59841 5.5312,-1.65625 4.0908,6.5813 6.4688,14.3327 6.4688,22.65628 0,23.7718 -19.2281,43 -43,43 -23.7719,0 -43,-19.2282 -43,-43 0,-23.77181 19.2281,-43.00003 43,-43.00003 z m 31,6 c 3.3374,0 6,2.66262 6,6 0,3.33737 -2.6626,6 -6,6 -3.3374,0 -6,-2.66263 -6,-6 0,-3.33738 2.6626,-6 6,-6 z m -31,9 c -15.4403,0 -28,12.5598 -28,28.00003 0,4.8739 1.2706,9.4458 3.4688,13.4375 -0.9189,1.302 -1.4688,2.8596 -1.4688,4.5625 0,4.3946 3.6054,8 8,8 1.6885,0 3.2667,-0.5327 4.5625,-1.4375 3.9904,2.1891 8.5745,3.4375 13.4375,3.4375 15.4403,0 28,-12.5598 28,-28 0,-15.44023 -12.5597,-28.00003 -28,-28.00003 z m 0,4 c 13.2785,0 24,10.72158 24,24.00003 0,13.2784 -10.7215,24 -24,24 -3.9013,0 -7.5376,-0.9458 -10.7812,-2.5938 0.4905,-1.0338 0.7812,-2.1927 0.7812,-3.4062 0,-4.3946 -3.6054,-8 -8,-8 -1.231,0 -2.3923,0.3086 -3.4375,0.8125 C 26.9168,1009.9272 26,1006.2695 26,1002.3622 26,989.08375 36.7215,978.36217 50,978.36217 z m 0,13 c -6.0515,0 -11,4.94858 -11,11.00003 0,6.0514 4.9485,11 11,11 6.0515,0 11,-4.9486 11,-11 0,-6.05145 -4.9485,-11.00003 -11,-11.00003 z m 0,4 c 3.8897,0 7,3.11032 7,7.00003 0,3.8896 -3.1103,7 -7,7 -3.8897,0 -7,-3.1104 -7,-7 0,-3.88971 3.1103,-7.00003 7,-7.00003 z m -18,21.00003 c 2.2328,0 4,1.7672 4,4 0,2.2328 -1.7672,4 -4,4 -2.2328,0 -4,-1.7672 -4,-4 0,-2.2328 1.7672,-4 4,-4 z" fill="#13293D" fill-opacity="1" stroke="none" marker="none" visibility="visible" display="inline" overflow="visible"></path></g></svg>