<svg fill="#13293D" xmlns="http://www.w3.org/2000/svg" xmlns:xlink="http://www.w3.org/1999/xlink" viewBox="0 0 64 64" version="1.1" x="0px" y="0px"><title>25</title><desc>Created with Sketch.</desc><g stroke="none" stroke-width="1" fill="none" fill-rule="evenodd"><g fill="#13293D"><path d="M32,64 C14.326888,64 0,49.673112 0,32 C0,14.326888 14.326888,0 32,0 C49.673112,0 64,14.326888 64,32 C64,49.673112 49.673112,64 32,64 Z M32,59 C46.9116882,59 59,46.9116882 59,32 C59,17.0883118 46.9116882,5 32,5 C17.0883118,5 5,17.0883118 5,32 C5,46.9116882 17.0883118,59 32,59 Z"></path><path d="M39.625,28.3125 L40.8114649,28.3125 C41.4678747,28.3125 42,28.8468142 42,29.508129 L42,43.741871 C42,44.4021986 41.4720008,44.9375 40.8114649,44.9375 L24.1885351,44.9375 C23.5321253,44.9375 23,44.4031858 23,43.741871 L23,29.508129 C23,28.8478014 23.5279992,28.3125 24.1885351,28.3125 L25.375,28.3125 L25.375,27.125 C25.375,23.1899712 28.5729781,20 32.5,20 C36.4350288,20 39.625,23.1979781 39.625,27.125 L39.625,28.3125 Z M33.5623647,37.5622293 C34.3406915,37.1723072 34.875,36.3673009 34.875,35.4375 C34.875,34.1258237 33.8116763,33.0625 32.5,33.0625 C31.1883237,33.0625 30.125,34.1258237 30.125,35.4375 C30.125,36.3673009 30.6593085,37.1723072 31.4376353,37.5622293 L29.53125,41.375 L35.46875,41.375 L33.5623647,37.5622293 Z M38.4375,28.3125 L38.4375,27.1263047 C38.4375,23.8466366 35.7791906,21.1875 32.5,21.1875 C29.2274818,21.1875 26.5625,23.8463934 26.5625,27.1263047 L26.5625,28.3125 L38.4375,28.3125 Z" fill-rule="nonzero"></path></g></g></svg>