<svg fill="#EAEBED" xmlns="http://www.w3.org/2000/svg" xmlns:xlink="http://www.w3.org/1999/xlink" version="1.1" x="0px" y="0px" viewBox="0 0 100 100" style="enable-background:new 0 0 100 100;" xml:space="preserve"><style type="text/css">
	.st0{fill:#EAEBED;}
</style><path class="st0" d="M87,30.1V8.9C87,8.4,86.6,8,86.1,8h-9.9c-0.6,0-1,0.6-0.8,1.1l0.5,1.5C75.9,11,76,11.5,76,12c0,2.8-2.2,5-5,5  s-5-2.2-5-5c0-0.5,0.1-1,0.2-1.4l0.2-0.5c0.3-1-0.5-2.1-1.6-2.1h-8.6c-1.1,0-1.9,1.1-1.6,2.1l0.2,0.5C54.9,11,55,11.5,55,12  c0,2.8-2.2,5-5,5s-5-2.2-5-5c0-0.5,0.1-1,0.2-1.4l0.2-0.5c0.3-1-0.5-2.1-1.6-2.1H33.2c-3.8-4.9-10.1-7.9-17.1-6.8  C8.5,2.4,2.4,8.5,1.2,16.2c-1.4,8.9,3.9,16.9,11.6,19.7c0.1,0,0.2,0.1,0.2,0.3c0,3.2,0,45,0,54.1c0,1,0.8,1.8,1.8,1.8h65.5  c0.7,0,1.3,0.4,1.6,1l1.5,3.3c0.6,1.4,2.6,1.4,3.2,0l5.7-12.7c0.1-0.2,0.2-0.5,0.2-0.7V31.9c0-0.5-0.4-0.9-0.9-0.9h-3.7  C87.4,31,87,30.6,87,30.1z M5,19c0-7.7,6.3-14,14-14s14,6.3,14,14s-6.3,14-14,14S5,26.7,5,19z M17,86.2l0-49c0-0.2,0.2-0.3,0.3-0.3  c0.4,0,0.8,0.1,1.1,0.1c9.3,0.1,17.9-7.4,18.5-16.7c0.2-3-0.3-5.7-1.4-8.3l3.9,0c0.8,0,1.5,0.6,1.6,1.4c0.7,4.3,4.4,7.6,8.9,7.6  c4.5,0,8.2-3.3,8.9-7.6c0.1-0.8,0.8-1.4,1.6-1.4h0c0.8,0,1.5,0.6,1.6,1.4c0.7,4.3,4.4,7.6,8.9,7.6c4.7,0,8.6-3.6,9-8.2  c0-0.4,0.4-0.8,0.9-0.8l1.1,0c0.6,0,1,0.4,1,0.9v17.2c0,0.5-0.4,0.9-0.9,0.9h-3.7c-0.5,0-0.9,0.4-0.9,0.9v51c0,0.3,0.1,0.5,0.2,0.8  l0.9,1.8c0.5,1.2-0.3,2.5-1.6,2.5H18.8C17.8,88,17,87.2,17,86.2z M85,82.8L85,82.8c1.2,0,2.1,1.2,1.7,2.3v0c-0.5,1.6-2.8,1.6-3.4,0  v0C82.9,84,83.8,82.8,85,82.8z"></path><path class="st0" d="M32,37.8h36c1.1,0,2,0.9,2,2v0c0,1.1-0.9,2-2,2H32c-1.1,0-2-0.9-2-2v0C30,38.7,30.9,37.8,32,37.8z"></path><path class="st0" d="M41.7,27.8h26.6c0.9,0,1.7,0.8,1.7,1.7v0.6c0,0.9-0.8,1.7-1.7,1.7H41.7c-0.9,0-1.7-0.8-1.7-1.7v-0.6  C40,28.6,40.8,27.8,41.7,27.8z"></path><path class="st0" d="M31.8,47.8h36.5c1,0,1.8,0.8,1.8,1.8V50c0,1-0.8,1.8-1.8,1.8H31.8c-1,0-1.8-0.8-1.8-1.8v-0.5  C30,48.6,30.8,47.8,31.8,47.8z"></path><path class="st0" d="M31.8,57.8h36.5c1,0,1.8,0.8,1.8,1.8V60c0,1-0.8,1.8-1.8,1.8H31.8c-1,0-1.8-0.8-1.8-1.8v-0.5  C30,58.6,30.8,57.8,31.8,57.8z"></path><path class="st0" d="M31.8,67.8h36.5c1,0,1.8,0.8,1.8,1.8V70c0,1-0.8,1.8-1.8,1.8H31.8c-1,0-1.8-0.8-1.8-1.8v-0.5  C30,68.6,30.8,67.8,31.8,67.8z"></path><path class="st0" d="M31.8,77.8h36.5c1,0,1.8,0.8,1.8,1.8V80c0,1-0.8,1.8-1.8,1.8H31.8c-1,0-1.8-0.8-1.8-1.8v-0.5  C30,78.6,30.8,77.8,31.8,77.8z"></path><path class="st0" d="M27.2,18.8h-6c-1.1,0-2-0.9-2-2v-6c0-1.1-0.9-2-2-2h0c-1.1,0-2,0.9-2,2v10c0,1.1,0.9,2,2,2h10c1.1,0,2-0.9,2-2  v0C29.2,19.7,28.3,18.8,27.2,18.8z"></path></svg>