<svg fill="#F0A202" xmlns="http://www.w3.org/2000/svg" xmlns:xlink="http://www.w3.org/1999/xlink" version="1.1" x="0px" y="0px" viewBox="0 0 100 100" style="enable-background:new 0 0 100 100;" xml:space="preserve"><g><g><path d="M99.284,73.697c0,0-2.345,5.832-5.657,5.055c-0.612-1.896-2.144-3.846-6.762-2.568v-4.747    c0.012-0.017,1.104-1.385,1.539-3.489c0.255,0.072,3.79,0.811,3.79-4.236c0-1.996-0.924-4.15-2.603-6.067    c-1.064-1.215-2.818-2.712-4.264-2.935c-1.183-0.177-2.362,0.419-2.961,0.91c-0.792-0.202-4.52-0.201-5.312,0.001    c-0.446-0.371-1.058-0.859-1.912-0.967c-0.062-0.632-0.231-1.261-0.522-1.856l-6.604-13.607    c-4.766-11.535-9.91-13.381-15.468-13.079c3.386-1.694,5.859-5.513,5.859-9.732c0-6.083-4.931-11.014-11.013-11.014    c-6.082,0-11.013,4.931-11.013,11.014c0,4.222,2.501,8.039,5.866,9.735c-5.53-0.378-10.61,1.5-15.393,13.076l-6.603,13.607    c-1.302,2.668-0.319,6.342,3.088,7.447l-3.419,3.419c-0.656-0.065-3.418-0.065-4.075,0l-4.365-4.365c0,0-2.641,3.7-2.516,7.967    c-0.126-0.404-1.289-4.476-5.985-5.028c-1.308,0-2.484,0.875-2.86,2.127c-0.229,0.764-0.39,2.794,2.026,3.727    c0.648,0.25,1.081,1.916,0.15,4.142c-3.939,9.651,2.116,12.387,3.323,12.885c0.291,0.795,0.605,1.536,0.883,2.149    c-0.901,0.654-1.622,1.721-1.622,3.287c0,1.88,1.405,3.824,3.756,3.824c0.666,0,1.204-0.198,1.616-0.482    c0.691,0.461,1.522,0.741,2.397,0.741c1.774,0,3.198-0.362,4.234-1.077c0.355-0.246,0.665-0.533,0.922-0.856    c0.253,0.313,0.555,0.593,0.9,0.834c1.045,0.729,2.472,1.1,4.241,1.1c0.875,0,1.707-0.28,2.397-0.741    c0.413,0.284,0.951,0.482,1.616,0.482c2.351,0,3.756-1.944,3.756-3.824c0-1.566-0.721-2.633-1.621-3.286    c0.292-0.647,0.626-1.437,0.931-2.28c1.161-3.217,1.288-5.514,0.386-7.021c-0.383-0.639-1.827-2.519-5.56-1.344v-0.851    c2.567-2.839,1.824-5.915,1.669-6.488c1.182-4.588-1.57-8.723-1.57-8.723c2.473,0.117,4.299-1.536,5.023-3.021l6.397-12.356    v43.672c0,3.169,2.578,5.747,5.748,5.747c2.397,0,4.457-1.476,5.317-3.565c0.853,2.107,2.921,3.599,5.33,3.599    c3.17,0,5.749-2.579,5.749-5.748V45.221l6.378,12.319c0.529,1.086,1.65,2.26,3.182,2.768c-0.541,1.138-0.826,2.295-0.826,3.403    c0,5.068,3.525,4.311,3.777,4.24c0.244,2.139,1.498,3.449,1.549,3.519v4.714c-3.789-1.455-5.674,0.574-6.224,1.412    c-1.025,1.561-1.386,4.298,0.439,9.577c-1.008,0.663-1.845,1.798-1.845,3.515c0,2.104,1.994,3.948,4.267,3.948    c1.471,0,2.608-0.606,2.86-0.753c0.701,0.469,1.544,0.753,2.432,0.753c1.791,0,4.135-0.49,5.206-1.958    c1.035,1.468,3.426,1.958,5.222,1.958c0.889,0,1.732-0.284,2.432-0.753c0.253,0.146,1.391,0.753,2.861,0.753    c2.272,0,4.266-1.845,4.266-3.948c0-2.381-1.826-3.567-1.826-3.567C103.211,83.756,99.284,73.697,99.284,73.697z M37.661,16.378    c0-5.378,4.358-9.735,9.735-9.735c5.376,0,9.735,4.357,9.735,9.735c0,5.369-4.347,9.722-9.712,9.734h-0.044    C42.007,26.1,37.661,21.748,37.661,16.378z M9.016,71.139c0.025,1.662,0.664,3.197,1.731,4.445v1.038    c-1.531-0.604-3.213-0.295-3.591-0.179C7.298,75.886,8.766,72.152,9.016,71.139z M9.05,92.828    c-1.583,0.343-2.472-1.065-2.472-2.108c0-2.261,2.26-2.456,2.26-2.456S7.718,86.17,6.961,83.87    C1.188,81.467,2.35,76.345,3.827,72.81c0.971-2.321,1.971-5.59-1.266-6.508c-0.698-0.197-1.089-0.939-0.88-1.634    c0.171-0.569,0.789-1.135,1.635-0.881c1.844,0.517,3.001,1.457,3.632,2.793c0.833,1.759,0.604,4.128-0.697,7.242    c-1.088,2.605-1.624,5.458,0.035,6.709c-0.23-3.599,3.598-2.45,4.524-2.137v8.712c-1.214,0.599-2.339,1.808-2.339,3.8    C8.469,91.593,8.685,92.251,9.05,92.828z M23.051,93.101c-2.916,0-4.488-1.126-4.488-3.104c0-0.851,0-2.395,0-3.879    c1.533-0.36,2.674-1.734,2.674-3.377c-0.193,1.733-1.684,2.694-3.469,2.694c-1.784,0-3.276-0.961-3.468-2.694    c0,1.666,1.174,3.058,2.74,3.393c0,1.472,0,3.001,0,3.863c0,2.025-1.573,3.104-4.488,3.104c-1.405,0-2.571-1.164-2.571-2.251    c0-2.354,2.353-2.559,2.353-2.559V76.926c1.535,1.034,3.462,1.653,5.555,1.653c2.015,0,3.878-0.573,5.383-1.539v11.251    c0,0,2.353,0.205,2.353,2.559C25.623,91.937,24.456,93.101,23.051,93.101z M27.113,77.75c5.279,0-0.322,10.455-0.322,10.455    s2.289,0.198,2.289,2.487c0,1.057-0.858,2.433-2.503,2.135c0.37-0.584,0.588-1.251,0.588-1.946c0-2.018-1.14-3.242-2.369-3.849    V78.21C25.733,77.893,26.498,77.75,27.113,77.75z M24.978,69.303c1.602,4.664-3.001,7.944-7.093,7.944s-8.741-3.257-7.094-7.944    c-0.402-1.277-0.867-4.027,0.928-7.423l3.46,3.462c0.419-0.137,4.99-0.137,5.409,0l3.462-3.462    C25.844,65.275,25.38,68.025,24.978,69.303z M66.145,56.911l-9.023-17.467v49.443c0,2.402-1.947,4.351-4.352,4.351    c-2.401,0-4.349-1.948-4.349-4.351v-25.36h-1.948v25.328c0,2.402-1.947,4.35-4.35,4.35c-2.402,0-4.35-1.947-4.35-4.35V39.444    l-9.043,17.467c-0.694,1.423-2.629,2.958-5.369,1.843c-1.989-0.97-2.821-3.358-1.85-5.348l6.54-13.475    c3.563-7.371,5.966-12.429,13.063-12.429h12.647c7.097,0,9.499,5.058,13.063,12.429l6.539,13.475    c0.223,0.456,0.35,0.932,0.392,1.407c-2.543,0.772-4.649,3.749-4.959,4.223C67.498,58.733,66.579,57.801,66.145,56.911z     M72.433,66.639c0-0.721,2.632-6.428,2.584-6.428c-0.87,0-2.487,3.24-3.191,4.749c-0.373,0.8-1.106,1.421-1.767,1.421    c-0.709,0-1.332-0.717-1.332-2.693c0-3.723,4.085-7.323,5.533-7.471c1.518-0.154,1.926,0.789,2.249,1.213    c0.868-0.382,5.529-0.383,6.396-0.005c0.313-0.411,1.256-1.404,2.281-1.208c1.43,0.273,5.533,3.748,5.533,7.471    c0,1.977-0.623,2.693-1.332,2.693c-0.659,0-1.393-0.621-1.766-1.421c-0.704-1.509-2.321-4.751-3.192-4.751    c-0.054,0,2.583,5.755,2.583,6.43c0,1.414-1.238,6.695-7.29,6.695C76.406,73.334,72.831,71.492,72.433,66.639z M70.842,92.771    c-0.371,0.153-0.955,0.336-1.636,0.336c-1.428,0-2.614-1.184-2.614-2.289c0-2.393,2.393-2.601,2.393-2.601    s-4.727-10.931,1.059-10.931c0.703,0,1.564,0.164,2.606,0.526v9.118C69.145,88.901,70.473,92.185,70.842,92.771z M85.033,93.107    c-2.949,0-4.541-1.092-4.541-3.141s0-7.824,0-7.824c-0.03-0.289-0.18-0.707-0.762-0.707c-0.612,0-0.757,0.392-0.779,0.735    c0,0,0,5.795,0,7.796c0,2.002-1.592,3.141-4.541,3.141c-1.421,0-2.602-1.178-2.602-2.277c0-2.381,2.381-2.588,2.381-2.588V73.007    c1.506,1.108,3.398,1.701,5.532,1.701c2.472,0,4.259-0.749,5.532-1.705v15.239c0,0,2.381,0.207,2.381,2.588    C87.635,91.93,86.455,93.107,85.033,93.107z M92.783,90.786c0,1.099-1.493,3.047-4.227,1.941c0.367-0.583,1.732-3.606-1.797-5.806    v-9.065c1.035-0.36,1.892-0.523,2.59-0.523c1.902,0,2.662,1.189,2.826,2.78c4.84,1.525,6.541-2.779,6.541-2.779    c-0.37,6.184-6.466,8.124-7.412,8.389c-0.451,1.436-0.901,2.478-0.901,2.478S92.783,88.406,92.783,90.786z"></path></g></g></svg>