<svg fill="#FFFFFF" xmlns:dc="http://purl.org/dc/elements/1.1/" xmlns:cc="http://creativecommons.org/ns#" xmlns:rdf="http://www.w3.org/1999/02/22-rdf-syntax-ns#" xmlns:svg="http://www.w3.org/2000/svg" xmlns="http://www.w3.org/2000/svg" xmlns:sodipodi="http://sodipodi.sourceforge.net/DTD/sodipodi-0.dtd" xmlns:inkscape="http://www.inkscape.org/namespaces/inkscape" viewBox="0 0 517.51774 577.46546" version="1.1" x="0px" y="0px"><g transform="translate(-115.5761,-341.81003)"><path style="" d="m 459.16425,341.81003 a 63.799577,63.799577 0 0 0 -63.757,63.7586 63.799577,63.799577 0 0 0 63.757,63.7586 63.799577,63.799577 0 0 0 63.76,-63.7586 63.799577,63.799577 0 0 0 -63.76,-63.7586 z m -50.908,134.0629 c -11.726,-1.2972 -23.472,3.8576 -30.547,13.8186 l -125.821,23.8789 c -8.811,1.6136 -16.108,7.8025 -19.272,16.2428 l -31.759,84.36566 c -5.026,13.2813 1.629,28.0644 14.91,33.0913 2.978,1.1792 6.049,1.5758 9.09,1.5758 10.366,0 20.033,-6.3043 23.88,-16.6065 l 26.91,-71.0316 71.396,-13.5761 -59.517,114.5482 c -2.794,5.4613 -3.825,11.322 -3.516,16.9696 l -48.123,52.2436 -72.365,-48.9706 c -14.087,-9.4954 -33.171,-5.8455 -42.667,8.2425 -9.495,14.0881 -5.845,33.293 8.242,42.7887 l 94.307,63.6375 c 5.213,3.5375 11.253,5.3336 17.212,5.3336 8.379,0 16.709,-3.4227 22.666,-9.9391 l 63.396,-68.8503 72.849,40.1217 -59.152,110.1847 c -8.007,14.9562 -2.473,33.6293 12.486,41.6975 4.655,2.4824 9.642,3.6361 14.545,3.6361 10.923,0 21.566,-5.8189 27.153,-16.1213 l 73.577,-136.9721 c 8.004,-14.8329 2.527,-33.4471 -12.243,-41.5772 l -56.972,-31.394 51.639,-99.2748 70.911,53.9405 c 4.592,3.5375 10.053,5.2119 15.515,5.2119 5.895,0 11.704,-2.0269 16.485,-6.0609 l 70.546,-59.516 c 10.799,-8.9371 12.154,-25.1426 3.031,-35.8793 -9.061,-10.7988 -25.14,-12.15336 -36.003,-3.0305 l -54.907,46.3037 -61.699,-46.91 1.212,-2.1815 c 8.441,-16.19806 2.016,-36.16646 -14.183,-44.60676 l -41.696,-21.8191 c -3.71,-1.9241 -7.608,-3.0827 -11.516,-3.5152 z" fill="#FFFFFF"></path></g></svg>