<svg fill="#CBD1DD" xmlns="http://www.w3.org/2000/svg" data-name="Layer 1" viewBox="0 0 100 100" x="0px" y="0px"><title>18</title><g data-name="Group"><rect data-name="Path" x="30.7" y="39.6" width="7.5" height="4"></rect><path data-name="Compound Path" d="M77.9,53.4V14.9H63.6V11.1H53.8a11.2,11.2,0,0,0-21,0H23v3.8H8.7V92.6H56.9a22.3,22.3,0,1,0,21-39.2Zm-4-34.5V52.1a22.3,22.3,0,0,0-4.9-.6h-.4V22.2h-5V18.9ZM55.7,56a22.5,22.5,0,0,0-6.9,8.4H30.7v4H47.4a22.3,22.3,0,0,0,0,10.9H22V26.2h1v3.5H63.6V26.2h1V52a22.2,22.2,0,0,0-8.8,3.9V52H30.7v4ZM43.3,7.8a7.3,7.3,0,0,1,6,3.3H37.3A7.3,7.3,0,0,1,43.3,7.8ZM27,15.1H59.6V25.6H27ZM12.7,18.9H23v3.2H18V83.3H48.8a22.4,22.4,0,0,0,3.5,5.3H12.7ZM69,92.2A18.3,18.3,0,1,1,87.3,73.9,18.3,18.3,0,0,1,69,92.2Z"></path><polygon data-name="Path" points="69.9 73.5 69.9 62.3 65.9 62.3 65.9 77.5 78.5 77.5 78.5 73.5 69.9 73.5"></polygon></g></svg>