<svg fill="#EAEBED" xmlns="http://www.w3.org/2000/svg" xmlns:xlink="http://www.w3.org/1999/xlink" version="1.1" x="0px" y="0px" viewBox="0 0 92.6 100" style="enable-background:new 0 0 92.6 100;" xml:space="preserve"><g><path d="M61.9,50.3c-5.8-3.3-13.2-1.9-17.5,3.2c-0.8,0.9-0.6,2.3,0.3,3c0.9,0.8,2.3,0.6,3-0.3c3-3.5,8-4.5,12.1-2.2   c4.6,2.6,6.3,8.5,3.7,13.1c-1.6,2.8-4.4,4.6-7.6,4.9c-1.2,0.1-2.1,1.1-2,2.3c0.1,1.1,1,2,2.1,2c0.1,0,0.1,0,0.2,0   c4.6-0.4,8.8-3,11-7.1C71,62.6,68.6,54.1,61.9,50.3z"></path><path d="M13.7,30h15c1.2,0,2.1-1,2.1-2.1s-1-2.1-2.1-2.1h-15c-1.2,0-2.1,1-2.1,2.1S12.5,30,13.7,30z"></path><path d="M41.5,19.3c1.2,0,2.1-1,2.1-2.1v-15c0-1.2-1-2.1-2.1-2.1s-2.1,1-2.1,2.1v15C39.4,18.3,40.3,19.3,41.5,19.3z"></path><path d="M29.2,18.6c0.4,0.4,1,0.6,1.5,0.6s1.1-0.2,1.5-0.6c0.8-0.8,0.8-2.2,0-3L21.6,5c-0.8-0.8-2.2-0.8-3,0c-0.8,0.8-0.8,2.2,0,3   L29.2,18.6z"></path><path d="M56.7,3.9h4.7l-5.8,5.8c-0.5,0.5-0.6,1.2-0.3,1.8c0.2,0.6,0.8,1,1.5,1h8.6c0.9,0,1.6-0.7,1.6-1.6c0-0.9-0.7-1.6-1.6-1.6   h-4.7l5.8-5.8C66.9,3,67,2.3,66.8,1.7c-0.2-0.6-0.8-1-1.5-1h-8.6c-0.9,0-1.6,0.7-1.6,1.6S55.8,3.9,56.7,3.9z"></path><path d="M69.6,8.2h4.7l-5.8,5.8c-0.5,0.5-0.6,1.2-0.3,1.8c0.2,0.6,0.8,1,1.5,1h8.6c0.9,0,1.6-0.7,1.6-1.6c0-0.9-0.7-1.6-1.6-1.6   h-4.7l5.8-5.8c0.5-0.5,0.6-1.2,0.3-1.8c-0.2-0.6-0.8-1-1.5-1h-8.6c-0.9,0-1.6,0.7-1.6,1.6S68.7,8.2,69.6,8.2z"></path><path d="M91,17.9h-4.7l5.8-5.8c0.5-0.5,0.6-1.2,0.3-1.8c-0.2-0.6-0.8-1-1.5-1h-8.6c-0.9,0-1.6,0.7-1.6,1.6c0,0.9,0.7,1.6,1.6,1.6   h4.7l-5.8,5.8c-0.5,0.5-0.6,1.2-0.3,1.8c0.2,0.6,0.8,1,1.5,1H91c0.9,0,1.6-0.7,1.6-1.6S91.9,17.9,91,17.9z"></path><path d="M53.2,44.5l-0.7-1c-0.9-1.2-1.4-2.7-1.4-4.2c0-1.3-1-2.3-2.3-2.3h-0.6h-0.6c-1.3,0-2.3,1-2.3,2.3c0,1.5-0.5,3-1.4,4.2   l-0.7,1h5H53.2z"></path><path d="M48.2,46.5c0.8,0,1.4-0.6,1.4-1.4h-2.8C46.8,45.8,47.4,46.5,48.2,46.5z"></path><path d="M78.7,49.5V29.1c0-4.1-3.4-7.5-7.5-7.5H43.3c-4.1,0-7.5,3.4-7.5,7.5V58h-9h0c-0.1,0-0.2,0.1-0.4,0.1   c-3.1,0.4-5.9,2.2-7.4,5L0.3,96.8c-0.6,1-0.2,2.3,0.8,2.9c0.3,0.2,0.7,0.3,1,0.3c0.8,0,1.5-0.4,1.9-1.1l18.8-33.8   c1-1.7,2.8-2.8,4.8-2.8l28.9,0l0,1.3c0,1.5-1.2,2.6-2,3.1c-1.5,1-3.6,1.6-5.7,1.6c0,0,0,0,0,0l-17.2,0h0c-1.2,0-2.1,1-2.1,2.1   c0,1.2,1,2.1,2.1,2.1l4.3,0V89c0,4.1,3.4,7.5,7.5,7.5h22.4c0,0,0.1,0,0.1,0h11.8c4.1,0,7.5-3.4,7.5-7.5c0-2-0.8-3.8-2-5.1   c1.6-1.4,2.6-3.4,2.6-5.6c0-2.1-0.9-4-2.3-5.4c1.4-1.4,2.3-3.3,2.3-5.4c0-2.1-0.9-4-2.2-5.3c1.4-1.4,2.2-3.3,2.2-5.3   C85.6,53,82.5,49.8,78.7,49.5z M40.8,81.6v-9l8,0c0,0,0,0,0,0c3,0,5.9-0.8,8.2-2.4c2.4-1.7,3.8-4.1,3.8-6.6l0-3.5   c0-1.2-1-2.1-2.1-2.1l-17.9,0V34h33v47.6H40.8z M77.9,92.2c0.5-1,0.7-2.1,0.7-3.2v-3c1.2,0.4,2.1,1.6,2.1,3   C80.8,90.7,79.5,92.1,77.9,92.2z M78.7,81.5v-6.3c1.5,0.3,2.7,1.6,2.7,3.2S80.2,81.3,78.7,81.5z M78.7,70.8v-6.3   c1.5,0.3,2.7,1.6,2.7,3.1C81.3,69.2,80.2,70.5,78.7,70.8z M78.7,60.1v-6.3c1.5,0.3,2.7,1.6,2.7,3.2C81.3,58.5,80.2,59.8,78.7,60.1z   "></path></g></svg>