<svg fill="#FFFFFF" xmlns="http://www.w3.org/2000/svg" xmlns:xlink="http://www.w3.org/1999/xlink" version="1.1" x="0px" y="0px" viewBox="0 0 100 100" enable-background="new 0 0 100 100" xml:space="preserve"><g><g><path d="M50,21.364h32.727c2.236-0.055,4.091-1.855,4.091-4.091c0-2.291-1.855-4.091-4.091-4.091H50    c-2.291,0-4.091,1.8-4.091,4.091C45.909,19.509,47.709,21.309,50,21.364z M82.727,5C89.491,5,95,10.455,95,17.273    c0,6.764-5.509,12.218-12.273,12.273H50c-6.818-0.055-12.273-5.509-12.273-12.273C37.727,10.455,43.182,5,50,5H82.727z"></path><path d="M50,62.273C43.182,62.218,37.727,56.764,37.727,50c0-6.818,5.455-12.273,12.273-12.273h32.727    C89.491,37.727,95,43.182,95,50c0,6.764-5.509,12.218-12.273,12.273H50z M82.727,45.909H50c-2.291,0-4.091,1.8-4.091,4.091    c0,2.236,1.8,4.036,4.091,4.091h32.727c2.236-0.055,4.091-1.855,4.091-4.091C86.818,47.709,84.964,45.909,82.727,45.909z"></path><path d="M82.727,70.455C89.491,70.455,95,75.909,95,82.727C95,89.491,89.491,94.945,82.727,95H50    c-6.818-0.055-12.273-5.509-12.273-12.273c0-6.818,5.455-12.273,12.273-12.273H82.727z M82.727,78.636H50    c-2.291,0-4.091,1.8-4.091,4.091c0,2.236,1.8,4.036,4.091,4.091h32.727c2.236-0.055,4.091-1.855,4.091-4.091    C86.818,80.436,84.964,78.636,82.727,78.636z"></path><path d="M21.364,82.727c0-2.291-1.855-4.091-4.091-4.091c-2.291,0-4.091,1.8-4.091,4.091c0,2.236,1.8,4.036,4.091,4.091    C19.509,86.764,21.364,84.964,21.364,82.727z M29.545,82.727c0,6.764-5.509,12.218-12.273,12.273C10.455,94.945,5,89.491,5,82.727    c0-6.818,5.455-12.273,12.273-12.273C24.036,70.455,29.545,75.909,29.545,82.727z"></path><path d="M17.273,45.909c-2.291,0-4.091,1.8-4.091,4.091c0,2.236,1.8,4.036,4.091,4.091c2.236-0.055,4.091-1.855,4.091-4.091    C21.364,47.709,19.509,45.909,17.273,45.909z M29.545,50c0,6.764-5.509,12.218-12.273,12.273C10.455,62.218,5,56.764,5,50    c0-6.818,5.455-12.273,12.273-12.273C24.036,37.727,29.545,43.182,29.545,50z"></path><path d="M29.545,17.273c0,6.764-5.509,12.218-12.273,12.273C10.455,29.491,5,24.036,5,17.273C5,10.455,10.455,5,17.273,5    C24.036,5,29.545,10.455,29.545,17.273z M17.273,13.182c-2.291,0-4.091,1.8-4.091,4.091c0,2.236,1.8,4.036,4.091,4.091    c2.236-0.055,4.091-1.855,4.091-4.091C21.364,14.982,19.509,13.182,17.273,13.182z"></path></g></g></svg>